<?xml version="1.0" encoding="UTF-8" standalone="no"?>
<!DOCTYPE svg PUBLIC "-//W3C//DTD SVG 1.1//EN" "http://www.w3.org/Graphics/SVG/1.1/DTD/svg11.dtd">
<svg width="100%" height="100%" viewBox="0 0 500 500" version="1.1" xmlns="http://www.w3.org/2000/svg" xmlns:xlink="http://www.w3.org/1999/xlink" xml:space="preserve" xmlns:serif="http://www.serif.com/" style="fill-rule:evenodd;clip-rule:evenodd;">
    <g id="Icon" transform="matrix(1.157407,0,0,1.157407,-39.351852,-39.351852)">
        <circle cx="250" cy="250" r="216" style="fill:url(#_Radial1);"/>
        <circle cx="250" cy="250" r="216" style="fill:none;stroke:url(#_Linear2);stroke-width:1.8px;"/>
        <g>
            <g>
                <clipPath id="_clip3">
                    <circle cx="250" cy="250" r="216"/>
                </clipPath>
                <g clip-path="url(#_clip3)">
                    <g opacity="0.05">
                        <path d="M40,152L460,152" style="fill:none;fill-rule:nonzero;stroke:rgb(0,242,255);stroke-width:0.5px;"/>
                        <path d="M40,200L460,200" style="fill:none;fill-rule:nonzero;stroke:rgb(0,242,255);stroke-width:0.5px;"/>
                        <path d="M40,250L460,250" style="fill:none;fill-rule:nonzero;stroke:rgb(0,242,255);stroke-width:0.5px;"/>
                        <path d="M40,300L460,300" style="fill:none;fill-rule:nonzero;stroke:rgb(0,242,255);stroke-width:0.5px;"/>
                        <path d="M40,348L460,348" style="fill:none;fill-rule:nonzero;stroke:rgb(0,242,255);stroke-width:0.5px;"/>
                        <path d="M185,40L185,460" style="fill:none;fill-rule:nonzero;stroke:rgb(0,242,255);stroke-width:0.5px;"/>
                        <path d="M218,40L218,460" style="fill:none;fill-rule:nonzero;stroke:rgb(0,242,255);stroke-width:0.5px;"/>
                        <path d="M250,40L250,460" style="fill:none;fill-rule:nonzero;stroke:rgb(0,242,255);stroke-width:0.5px;"/>
                        <path d="M282,40L282,460" style="fill:none;fill-rule:nonzero;stroke:rgb(0,242,255);stroke-width:0.5px;"/>
                        <path d="M315,40L315,460" style="fill:none;fill-rule:nonzero;stroke:rgb(0,242,255);stroke-width:0.5px;"/>
                    </g>
                </g>
            </g>
        </g>
        <g opacity="0.3">
            <path d="M250,152L295,152C308.333,152 315,158.667 315,172L315,230C315,243.333 308.333,250 295,250L205,250C191.667,250 185,256.667 185,270L185,328C185,341.333 191.667,348 205,348L250,348" style="fill:none;fill-rule:nonzero;stroke:url(#_Linear4);stroke-width:30px;stroke-linecap:round;"/>
            <path d="M250,152L250,112" style="fill:none;fill-rule:nonzero;stroke:rgb(0,242,255);stroke-width:20px;stroke-linecap:round;"/>
            <path d="M315,152L360,152" style="fill:none;fill-rule:nonzero;stroke:rgb(0,242,255);stroke-width:20px;stroke-linecap:round;"/>
            <path d="M315,152L315,112" style="fill:none;fill-rule:nonzero;stroke:rgb(0,242,255);stroke-width:20px;stroke-linecap:round;"/>
            <path d="M315,250L360,250" style="fill:none;fill-rule:nonzero;stroke:rgb(139,63,255);stroke-width:20px;stroke-linecap:round;"/>
            <path d="M185,250L140,250" style="fill:none;fill-rule:nonzero;stroke:rgb(139,63,255);stroke-width:20px;stroke-linecap:round;"/>
            <path d="M185,348L140,348" style="fill:none;fill-rule:nonzero;stroke:rgb(255,31,126);stroke-width:20px;stroke-linecap:round;"/>
            <path d="M185,348L185,388" style="fill:none;fill-rule:nonzero;stroke:rgb(255,31,126);stroke-width:20px;stroke-linecap:round;"/>
            <path d="M250,348L250,388" style="fill:none;fill-rule:nonzero;stroke:rgb(255,31,126);stroke-width:20px;stroke-linecap:round;"/>
        </g>
        <g opacity="0.65">
            <path d="M250,152L295,152C308.333,152 315,158.667 315,172L315,230C315,243.333 308.333,250 295,250L205,250C191.667,250 185,256.667 185,270L185,328C185,341.333 191.667,348 205,348L250,348" style="fill:none;fill-rule:nonzero;stroke:url(#_Linear5);stroke-width:14px;stroke-linecap:round;"/>
            <path d="M250,152L250,114" style="fill:none;fill-rule:nonzero;stroke:rgb(0,242,255);stroke-width:10px;stroke-linecap:round;"/>
            <path d="M315,152L358,152" style="fill:none;fill-rule:nonzero;stroke:rgb(0,242,255);stroke-width:10px;stroke-linecap:round;"/>
            <path d="M315,152L315,114" style="fill:none;fill-rule:nonzero;stroke:rgb(0,242,255);stroke-width:10px;stroke-linecap:round;"/>
            <path d="M315,250L358,250" style="fill:none;fill-rule:nonzero;stroke:rgb(139,63,255);stroke-width:10px;stroke-linecap:round;"/>
            <path d="M185,250L142,250" style="fill:none;fill-rule:nonzero;stroke:rgb(139,63,255);stroke-width:10px;stroke-linecap:round;"/>
            <path d="M185,348L142,348" style="fill:none;fill-rule:nonzero;stroke:rgb(255,31,126);stroke-width:10px;stroke-linecap:round;"/>
            <path d="M185,348L185,386" style="fill:none;fill-rule:nonzero;stroke:rgb(255,31,126);stroke-width:10px;stroke-linecap:round;"/>
            <path d="M250,348L250,386" style="fill:none;fill-rule:nonzero;stroke:rgb(255,31,126);stroke-width:10px;stroke-linecap:round;"/>
        </g>
        <g>
            <path d="M250,152L295,152C308.333,152 315,158.667 315,172L315,230C315,243.333 308.333,250 295,250L205,250C191.667,250 185,256.667 185,270L185,328C185,341.333 191.667,348 205,348L250,348" style="fill:none;fill-rule:nonzero;stroke:url(#_Linear6);stroke-width:9px;stroke-linecap:round;"/>
            <path d="M250,152L250,115" style="fill:none;fill-rule:nonzero;stroke:rgb(0,242,255);stroke-width:6.5px;stroke-linecap:round;"/>
            <path d="M315,152L357,152" style="fill:none;fill-rule:nonzero;stroke:rgb(0,242,255);stroke-width:6.5px;stroke-linecap:round;"/>
            <path d="M315,152L315,115" style="fill:none;fill-rule:nonzero;stroke:rgb(0,242,255);stroke-width:6.5px;stroke-linecap:round;"/>
            <path d="M315,250L357,250" style="fill:none;fill-rule:nonzero;stroke:rgb(139,63,255);stroke-width:6.5px;stroke-linecap:round;"/>
            <path d="M185,250L143,250" style="fill:none;fill-rule:nonzero;stroke:rgb(139,63,255);stroke-width:6.5px;stroke-linecap:round;"/>
            <path d="M185,348L143,348" style="fill:none;fill-rule:nonzero;stroke:rgb(255,31,126);stroke-width:6.5px;stroke-linecap:round;"/>
            <path d="M185,348L185,385" style="fill:none;fill-rule:nonzero;stroke:rgb(255,31,126);stroke-width:6.5px;stroke-linecap:round;"/>
            <path d="M250,348L250,385" style="fill:none;fill-rule:nonzero;stroke:rgb(255,31,126);stroke-width:6.5px;stroke-linecap:round;"/>
        </g>
        <g>
            <circle cx="250" cy="152" r="10" style="fill:rgb(0,242,255);"/>
            <circle cx="315" cy="152" r="10" style="fill:rgb(26,218,255);"/>
            <circle cx="315" cy="250" r="10" style="fill:rgb(139,63,255);"/>
            <circle cx="185" cy="250" r="10" style="fill:rgb(139,63,255);"/>
            <circle cx="185" cy="348" r="10" style="fill:rgb(255,31,126);"/>
            <circle cx="250" cy="348" r="10" style="fill:rgb(255,31,126);"/>
            <circle cx="250" cy="112" r="7.5" style="fill:rgb(8,6,14);stroke:rgb(0,242,255);stroke-width:2.5px;"/>
            <circle cx="357" cy="152" r="7.5" style="fill:rgb(8,6,14);stroke:rgb(0,242,255);stroke-width:2.5px;"/>
            <circle cx="315" cy="112" r="7.5" style="fill:rgb(8,6,14);stroke:rgb(0,242,255);stroke-width:2.5px;"/>
            <circle cx="357" cy="250" r="7.5" style="fill:rgb(8,6,14);stroke:rgb(139,63,255);stroke-width:2.5px;"/>
            <circle cx="143" cy="250" r="7.5" style="fill:rgb(8,6,14);stroke:rgb(139,63,255);stroke-width:2.5px;"/>
            <circle cx="143" cy="348" r="7.5" style="fill:rgb(8,6,14);stroke:rgb(255,31,126);stroke-width:2.5px;"/>
            <circle cx="185" cy="388" r="7.5" style="fill:rgb(8,6,14);stroke:rgb(255,31,126);stroke-width:2.5px;"/>
            <circle cx="250" cy="388" r="7.5" style="fill:rgb(8,6,14);stroke:rgb(255,31,126);stroke-width:2.5px;"/>
        </g>
    </g>
    <defs>
        <radialGradient id="_Radial1" cx="0" cy="0" r="1" gradientUnits="userSpaceOnUse" gradientTransform="matrix(224.64,0,0,224.64,250,224.08)"><stop offset="0" style="stop-color:rgb(29,26,48);stop-opacity:1"/><stop offset="1" style="stop-color:rgb(8,6,14);stop-opacity:1"/></radialGradient>
        <linearGradient id="_Linear2" x1="0" y1="0" x2="1" y2="0" gradientUnits="userSpaceOnUse" gradientTransform="matrix(0,284,-284,0,250,108)"><stop offset="0" style="stop-color:rgb(0,242,255);stop-opacity:0.75"/><stop offset="0.48" style="stop-color:rgb(139,63,255);stop-opacity:0.75"/><stop offset="1" style="stop-color:rgb(255,31,126);stop-opacity:0.75"/></linearGradient>
        <linearGradient id="_Linear4" x1="0" y1="0" x2="1" y2="0" gradientUnits="userSpaceOnUse" gradientTransform="matrix(0,284,-284,0,250,108)"><stop offset="0" style="stop-color:rgb(0,242,255);stop-opacity:1"/><stop offset="0.48" style="stop-color:rgb(139,63,255);stop-opacity:1"/><stop offset="1" style="stop-color:rgb(255,31,126);stop-opacity:1"/></linearGradient>
        <linearGradient id="_Linear5" x1="0" y1="0" x2="1" y2="0" gradientUnits="userSpaceOnUse" gradientTransform="matrix(0,284,-284,0,250,108)"><stop offset="0" style="stop-color:rgb(0,242,255);stop-opacity:1"/><stop offset="0.48" style="stop-color:rgb(139,63,255);stop-opacity:1"/><stop offset="1" style="stop-color:rgb(255,31,126);stop-opacity:1"/></linearGradient>
        <linearGradient id="_Linear6" x1="0" y1="0" x2="1" y2="0" gradientUnits="userSpaceOnUse" gradientTransform="matrix(0,284,-284,0,250,108)"><stop offset="0" style="stop-color:rgb(0,242,255);stop-opacity:1"/><stop offset="0.48" style="stop-color:rgb(139,63,255);stop-opacity:1"/><stop offset="1" style="stop-color:rgb(255,31,126);stop-opacity:1"/></linearGradient>
    </defs>
</svg>
